<?xml version="1.0" encoding="utf-8"?>
<!DOCTYPE svg PUBLIC "-//W3C//DTD SVG 20010904//EN" "http://www.w3.org/TR/2001/REC-SVG-20010904/DTD/svg10.dtd">
<svg version="1.0" xmlns="http://www.w3.org/2000/svg" width="256pt" height="256pt" viewBox="0 0 256 256" style="background-color:#3B3B3B" preserveAspectRatio="xMidYMid meet">
<g fill="#FFFFFFFF" stroke="#FFFFFFFF">
<path d="M 117.000 51.302 C 115.071 51.907 110.926 54.961 107.764 58.106 L 102.027 63.813 94.264 63.299 C 86.912 62.813 86.160 62.964 80.089 66.143 C 70.148 71.349 64.343 81.275 65.169 91.658 C 65.485 95.629 65.280 96.055 62.513 97.202 C 49.391 102.637 43.032 120.644 49.588 133.801 C 52.310 139.262 58.871 145.679 62.723 146.645 C 64.641 147.127 65.000 147.880 65.000 151.427 C 65.000 169.577 80.878 182.367 99.000 178.814 C 102.268 178.173 102.701 178.405 105.530 182.314 C 111.720 190.868 123.704 194.681 134.517 191.538 C 139.269 190.157 141.440 188.741 146.079 184.000 C 151.700 178.256 151.851 178.178 155.645 179.070 C 157.765 179.568 161.300 179.734 163.500 179.439 C 166.881 178.985 168.484 179.489 173.859 182.699 C 181.314 187.151 183.988 190.509 185.144 196.866 C 186.224 202.810 189.650 206.000 194.952 206.000 C 200.212 206.000 204.234 201.332 207.097 191.907 C 208.912 185.930 209.173 183.150 208.761 174.160 C 208.203 161.992 205.921 154.669 200.454 147.508 L 197.078 143.085 200.506 137.991 C 204.376 132.240 205.986 127.381 205.994 121.428 C 206.007 112.097 199.944 102.160 191.770 98.116 C 187.504 96.006 187.500 95.999 187.387 90.205 C 187.187 79.974 181.436 70.493 172.500 65.662 C 169.200 63.879 166.891 63.509 159.311 63.549 C 150.628 63.595 150.052 63.467 148.846 61.212 C 147.224 58.182 141.226 53.410 136.620 51.486 C 132.531 49.777 122.170 49.680 117.000 51.302 M 133.756 54.520 C 139.341 56.179 145.788 61.599 147.825 66.348 C 148.742 68.485 149.478 69.016 150.773 68.473 C 156.910 65.902 165.834 66.311 171.886 69.441 C 176.234 71.689 181.599 78.495 183.017 83.561 C 183.776 86.272 184.020 90.170 183.636 93.440 C 183.006 98.796 183.026 98.847 185.943 99.487 C 190.804 100.555 196.768 105.609 199.478 110.957 C 204.315 120.501 202.458 131.802 194.872 139.000 L 191.183 142.500 195.531 147.280 C 205.298 158.017 208.409 177.228 202.934 192.995 C 201.030 198.477 197.192 203.000 194.444 203.000 C 192.299 203.000 189.000 199.304 189.000 196.901 C 189.000 190.669 182.338 182.827 173.000 178.066 C 168.371 175.707 166.624 175.338 161.970 175.737 C 158.356 176.047 155.209 175.696 152.884 174.725 L 149.328 173.239 147.021 177.461 C 145.683 179.911 142.619 183.115 139.723 185.092 C 135.258 188.141 133.955 188.519 127.362 188.678 C 121.223 188.826 119.272 188.452 115.674 186.441 C 110.825 183.731 106.571 179.375 105.511 176.033 C 104.937 174.227 104.300 173.921 102.152 174.417 C 100.693 174.754 97.008 175.302 93.963 175.634 C 86.739 176.423 79.361 173.408 74.435 167.653 C 70.133 162.627 68.690 158.018 69.147 150.765 L 69.500 145.163 66.000 144.110 C 61.191 142.662 55.376 137.632 52.758 132.653 C 48.372 124.313 50.641 110.589 57.363 104.796 C 60.190 102.360 66.556 99.000 68.345 99.000 C 69.485 99.000 69.666 97.703 69.248 92.502 C 68.351 81.320 73.143 72.804 82.706 68.590 C 87.363 66.537 95.857 66.215 100.315 67.922 C 104.256 69.431 104.704 69.314 105.386 66.598 C 106.240 63.195 115.286 55.388 119.747 54.203 C 125.209 52.753 128.018 52.816 133.756 54.520 "/></g>
<g fill="#000096FF" stroke="#000096FF">
<path d="M 116.227 56.116 C 111.628 58.393 106.288 64.108 105.358 67.750 C 104.676 70.421 105.092 70.354 100.654 68.500 C 96.167 66.625 87.977 66.565 83.645 68.375 C 74.250 72.301 68.358 82.209 69.314 92.473 L 69.876 98.500 63.971 101.271 C 55.452 105.270 51.663 110.986 51.165 120.591 C 50.872 126.241 51.208 128.488 52.818 131.644 C 55.574 137.045 60.494 141.641 65.612 143.596 L 69.879 145.226 69.332 149.863 C 68.434 157.469 70.458 162.797 76.469 168.654 C 80.857 172.929 82.718 174.007 87.380 174.975 C 92.044 175.943 93.919 175.875 98.404 174.571 C 105.187 172.599 104.540 172.475 106.014 176.034 C 107.823 180.402 115.240 186.527 120.504 188.001 C 126.301 189.624 133.136 188.696 138.489 185.559 C 142.590 183.156 148.000 176.626 148.000 174.080 C 148.000 173.182 148.712 172.983 150.250 173.451 C 156.987 175.499 159.899 175.919 163.670 175.386 C 172.024 174.205 187.075 185.260 188.550 193.660 C 189.560 199.411 191.552 202.000 194.966 202.000 C 198.612 202.000 200.418 199.568 203.030 191.145 C 205.667 182.638 205.665 170.363 203.024 161.813 C 200.838 154.736 195.948 146.667 192.459 144.381 L 190.197 142.899 194.876 138.199 C 201.534 131.513 203.506 123.758 200.824 114.807 C 199.115 109.103 192.877 102.490 187.232 100.398 C 184.629 99.434 182.412 98.600 182.305 98.544 C 182.198 98.489 182.529 96.656 183.040 94.472 C 185.320 84.733 180.018 74.113 170.568 69.489 C 165.798 67.156 164.157 66.842 159.245 67.321 C 156.085 67.630 152.263 68.186 150.750 68.558 C 148.713 69.058 148.000 68.861 148.000 67.797 C 148.000 65.314 140.789 57.809 136.556 55.886 C 130.868 53.303 121.702 53.406 116.227 56.116 M 136.249 66.164 C 143.985 70.034 148.033 81.199 144.641 89.316 C 143.778 91.383 143.551 92.777 144.138 92.415 C 145.699 91.450 149.979 81.865 149.990 79.309 C 150.003 76.372 151.516 75.611 157.172 75.696 C 164.223 75.802 170.134 79.621 173.403 86.182 C 174.831 89.048 176.000 92.846 176.000 94.623 C 176.000 97.541 175.492 98.091 170.750 100.313 C 167.863 101.665 164.600 103.520 163.500 104.434 C 161.622 105.996 161.694 106.003 164.700 104.548 C 171.023 101.489 180.794 102.988 186.356 107.871 C 194.721 115.212 193.362 131.423 183.854 137.715 C 179.334 140.707 171.756 141.783 166.816 140.136 L 163.500 139.029 165.845 141.002 C 167.134 142.086 169.947 143.447 172.095 144.025 C 175.614 144.973 175.998 145.395 175.978 148.289 C 175.927 155.765 168.514 165.250 161.727 166.523 C 159.904 166.865 156.657 167.000 154.513 166.823 C 150.704 166.507 150.582 166.376 149.263 161.149 C 148.521 158.205 147.145 154.648 146.207 153.243 L 144.500 150.688 145.395 154.746 C 149.039 171.271 133.368 184.198 118.448 176.975 C 109.377 172.583 105.146 160.422 109.655 151.700 C 111.243 148.628 111.237 148.560 109.496 150.000 C 107.275 151.838 104.052 158.714 104.022 161.679 C 104.010 162.877 103.245 164.613 102.321 165.536 C 99.747 168.110 90.305 167.129 85.212 163.759 C 74.563 156.712 74.302 139.623 84.735 132.534 C 86.786 131.140 87.895 130.000 87.200 130.000 C 84.380 130.000 78.533 133.216 75.493 136.438 L 72.263 139.863 68.642 137.403 C 57.146 129.591 58.480 111.387 71.018 104.991 C 75.710 102.597 82.872 102.404 87.300 104.553 L 90.500 106.106 87.736 103.589 C 86.216 102.205 83.178 100.535 80.986 99.878 C 77.176 98.736 77.001 98.503 77.022 94.592 C 77.087 82.462 88.900 73.034 100.250 76.054 C 106.371 77.682 110.900 81.540 113.562 87.392 C 114.839 90.201 115.900 91.825 115.918 91.000 C 115.994 87.559 113.787 80.303 111.854 77.641 C 109.310 74.137 110.216 71.462 115.246 67.626 C 121.390 62.939 128.775 62.425 136.249 66.164 M 189.387 149.003 C 191.929 151.346 194.925 155.595 196.615 159.253 C 199.242 164.941 199.500 166.485 199.500 176.500 C 199.500 186.027 199.181 188.169 197.115 192.500 L 194.730 197.500 193.874 193.718 C 193.403 191.637 192.373 188.689 191.586 187.166 C 189.697 183.513 181.919 176.406 177.510 174.303 C 175.579 173.383 174.000 172.341 174.000 171.989 C 174.000 171.637 175.169 170.258 176.597 168.924 C 181.250 164.581 183.364 159.184 183.324 151.750 C 183.305 148.038 183.683 145.000 184.166 145.000 C 184.650 145.000 186.999 146.801 189.387 149.003 "/></g>
<g fill="#7A7AFFFF" stroke="#7A7AFFFF">
<path d="M 110.000 73.374 C 110.000 73.580 111.089 75.717 112.421 78.124 C 115.065 82.903 116.582 90.592 115.533 93.896 C 114.885 95.938 114.780 95.918 111.184 93.069 C 103.141 86.694 91.546 85.453 81.510 89.893 C 77.234 91.784 76.894 92.197 77.185 95.146 C 77.456 97.902 78.067 98.534 81.586 99.702 C 85.579 101.026 93.000 106.867 93.000 108.684 C 93.000 109.187 91.373 110.186 89.385 110.905 C 80.860 113.988 73.227 124.175 72.303 133.703 L 71.741 139.500 75.121 136.362 C 79.144 132.626 83.230 130.477 88.000 129.590 L 91.500 128.938 88.500 130.330 C 81.681 133.495 77.000 140.648 77.000 147.903 C 77.000 153.212 78.477 156.818 82.311 160.869 C 87.373 166.217 93.972 168.186 100.750 166.370 C 104.922 165.252 103.042 164.500 96.073 164.500 C 88.584 164.500 85.670 163.118 81.562 157.615 C 78.672 153.744 78.636 142.782 81.500 138.530 L 83.500 135.560 84.025 142.030 C 84.938 153.272 89.949 159.144 100.250 161.041 C 103.132 161.572 104.000 161.406 104.000 160.326 C 104.000 158.188 107.529 151.734 109.840 149.643 L 111.893 147.787 109.947 151.605 C 106.474 158.416 107.636 166.833 112.814 172.376 C 122.427 182.668 138.247 180.204 144.110 167.500 C 146.288 162.781 146.461 158.846 144.750 152.904 L 143.500 148.561 146.250 153.119 C 147.763 155.625 149.000 158.382 149.000 159.244 C 149.000 160.872 149.191 160.862 157.307 158.841 C 161.804 157.720 168.258 152.205 170.004 147.989 C 170.685 146.345 171.726 145.000 172.318 145.000 C 172.909 145.000 171.091 143.853 168.279 142.452 C 161.630 139.138 158.928 136.159 165.120 138.969 C 167.529 140.062 171.092 140.966 173.038 140.978 C 177.872 141.008 184.756 137.289 188.442 132.657 C 191.169 129.230 191.500 128.086 191.500 122.084 C 191.500 116.612 191.050 114.696 189.090 111.837 C 183.608 103.836 173.598 100.858 164.883 104.634 L 160.576 106.500 165.288 103.057 C 167.880 101.164 170.000 99.229 170.000 98.758 C 170.000 95.010 162.480 86.927 156.782 84.551 C 151.553 82.370 149.324 82.574 148.640 85.296 C 148.324 86.559 146.546 89.349 144.690 91.495 L 141.317 95.398 140.601 92.546 C 138.643 84.747 129.073 76.169 120.000 74.084 C 115.520 73.053 110.000 72.662 110.000 73.374 M 189.795 123.457 C 188.602 137.849 171.932 144.029 160.750 134.224 C 158.283 132.061 158.573 130.701 161.201 132.108 C 164.788 134.027 173.026 133.538 177.759 131.123 C 182.446 128.732 186.598 123.261 187.626 118.121 C 188.667 112.916 190.330 117.007 189.795 123.457 M 118.320 168.913 C 126.157 172.707 134.583 171.264 140.780 165.066 C 144.263 161.584 144.775 162.209 142.636 167.329 C 139.612 174.567 130.201 179.276 123.045 177.132 C 116.453 175.157 110.000 168.371 110.000 163.415 C 110.000 162.123 110.467 162.324 112.004 164.278 C 113.106 165.679 115.948 167.765 118.320 168.913 "/></g>
<g fill="#003B92FF" stroke="#003B92FF">
<path d="M 73.791 103.988 C 63.847 106.986 58.225 119.424 62.351 129.298 C 63.094 131.076 65.457 134.073 67.601 135.958 L 71.500 139.385 72.096 133.943 C 73.184 124.017 79.317 115.446 88.518 110.991 L 93.253 108.699 90.876 106.860 C 86.449 103.432 79.506 102.266 73.791 103.988 "/></g>
<g fill="#003B92FF" stroke="#003B92FF">
<path d="M 118.319 66.071 C 116.019 67.210 113.461 69.174 112.633 70.437 C 111.139 72.717 111.167 72.737 116.437 73.281 C 126.062 74.275 135.059 80.463 139.326 89.026 C 142.128 94.649 143.140 94.285 145.071 86.961 C 146.602 81.152 145.067 75.285 140.724 70.338 C 134.992 63.810 126.250 62.145 118.319 66.071 "/></g>
<g fill="#7A7AFFFF" stroke="#7A7AFFFF">
<path d="M 189.187 156.453 C 189.228 163.646 186.539 170.645 182.517 173.808 L 180.208 175.624 183.197 177.562 C 187.685 180.472 192.949 187.831 193.642 192.162 C 193.979 194.273 194.630 196.000 195.088 196.000 C 196.671 196.000 200.000 182.787 200.000 176.500 C 200.000 173.041 199.112 167.351 198.026 163.855 C 196.058 157.516 191.725 150.000 190.039 150.000 C 189.550 150.000 189.166 152.904 189.187 156.453 "/></g>
<g fill="#003B92FF" stroke="#003B92FF">
<path d="M 87.425 78.019 C 82.962 80.228 79.953 83.736 78.227 88.742 L 77.109 91.985 81.275 89.860 C 86.287 87.303 95.968 86.362 101.595 87.885 C 103.847 88.495 107.672 90.313 110.095 91.925 L 114.500 94.857 114.354 91.944 C 114.274 90.342 113.043 87.043 111.618 84.612 C 106.957 76.658 96.133 73.708 87.425 78.019 "/></g>
<g fill="#003B92FF" stroke="#003B92FF">
<path d="M 150.667 76.667 C 150.300 77.033 150.000 78.608 150.000 80.167 C 150.000 82.435 150.448 83.002 152.250 83.009 C 153.488 83.015 156.870 84.378 159.767 86.039 C 163.646 88.264 165.754 90.366 167.767 94.016 C 169.779 97.664 171.094 98.975 172.750 98.986 C 174.747 98.998 175.000 98.502 175.000 94.565 C 175.000 83.435 167.470 76.000 156.199 76.000 C 153.523 76.000 151.033 76.300 150.667 76.667 "/></g>
<g fill="#A5C7FFFF" stroke="#A5C7FFFF">
<path d="M 81.811 139.000 C 79.613 142.404 78.674 147.450 79.460 151.638 C 80.296 156.094 86.116 162.553 90.641 164.047 C 94.160 165.208 103.000 164.564 103.000 163.146 C 103.000 162.744 101.000 161.880 98.556 161.226 C 89.665 158.848 82.551 149.372 83.140 140.692 L 83.425 136.500 81.811 139.000 "/></g>
<g fill="#4747FFFF" stroke="#4747FFFF">
<path d="M 184.000 151.108 C 184.000 158.206 182.280 163.313 178.339 167.917 C 176.503 170.062 175.000 172.029 175.000 172.288 C 175.000 172.546 176.361 173.321 178.026 174.011 C 180.637 175.092 181.318 175.023 183.000 173.500 C 186.714 170.139 189.056 163.618 189.284 156.010 C 189.492 149.053 189.400 148.740 186.750 147.370 L 184.000 145.949 184.000 151.108 "/></g>
<g fill="#A5C7FFFF" stroke="#A5C7FFFF">
<path d="M 187.635 119.271 C 185.681 129.313 172.296 136.566 162.315 132.992 L 159.500 131.984 162.264 134.456 C 166.493 138.238 172.092 139.589 177.200 138.058 C 185.490 135.574 191.485 126.049 189.336 118.773 L 188.370 115.500 187.635 119.271 "/></g>
<g fill="#A5C7FFFF" stroke="#A5C7FFFF">
<path d="M 111.443 166.463 C 113.488 171.425 115.294 173.437 119.492 175.429 C 126.805 178.899 136.866 176.190 140.899 169.663 C 144.049 164.566 143.443 163.552 139.250 166.902 C 131.557 173.050 120.357 172.608 113.335 165.878 L 109.809 162.500 111.443 166.463 "/></g>
<g fill="#A5C7FFFF" stroke="#A5C7FFFF">
<path d="M 171.000 146.267 C 171.000 147.055 169.622 149.602 167.938 151.926 C 164.556 156.596 158.419 159.943 153.177 159.978 C 150.562 159.995 149.925 160.371 150.189 161.742 C 150.877 165.316 161.842 164.998 166.858 161.260 C 168.311 160.177 170.294 157.935 171.265 156.278 C 173.414 152.608 174.015 145.900 172.250 145.276 C 171.563 145.032 171.000 145.478 171.000 146.267 "/></g>
<g fill="#7A7AFFFF" stroke="#7A7AFFFF">
<path d="M 174.000 147.973 C 174.000 158.208 163.765 166.492 153.500 164.566 C 149.981 163.906 148.579 165.241 151.582 166.393 C 157.121 168.518 166.772 165.436 171.253 160.111 C 175.070 155.575 177.291 146.916 175.000 145.500 C 174.416 145.139 174.000 146.167 174.000 147.973 "/></g>
</svg>
